# xmcd
#
# Track frame offsets: 
#        150
#        18658
#        37546
#        65574
#        87145
#        107059
#        134103
#        152297
#        173689
#        194286
#        227494
#        241110
#
# Disc length: 3421 seconds
#
# Revision: 0
# Processed by: cddbd v1.5PL3 Copyright (c) Steve Scherf et al.
# Submitted via: ExactAudioCopy v0.95a5
#
DISCID=8a0d5b0c
DTITLE=Tom Vieth - Tom`s Walk
DYEAR=2004
DGENRE=Blues
TTITLE0=take me
TTITLE1=secretary
TTITLE2=singing girl
TTITLE3=let´s share that woman
TTITLE4=big crowd
TTITLE5=pave my way to you
TTITLE6=don´t you smile at me that way
TTITLE7=tears of joy
TTITLE8=i don´t cheat on my babe
TTITLE9=going to chicago
TTITLE10=springtime
TTITLE11=tom´s walk
EXTD=
EXTT0=
EXTT1=
EXTT2=
EXTT3=
EXTT4=
EXTT5=
EXTT6=
EXTT7=
EXTT8=
EXTT9=
EXTT10=
EXTT11=
PLAYORDER=
